<!DOCTYPE svg PUBLIC "-//W3C//DTD SVG 20010904//EN" "http://www.w3.org/TR/2001/REC-SVG-20010904/DTD/svg10.dtd">
<svg version="1.0" xmlns="http://www.w3.org/2000/svg" width="550px" height="408px" viewBox="0 0 5500 4080" preserveAspectRatio="xMidYMid meet">
<g id="layer1" fill="#000000" stroke="none">
 <path d="M2750 3933 c-14 -2 -51 -27 -83 -56 -56 -51 -59 -56 -118 -212 -34 -88 -64 -164 -69 -168 -4 -5 -34 -12 -66 -16 -55 -8 -64 -6 -126 25 -37 18 -84 36 -105 40 l-39 6 -90 -109 c-50 -59 -110 -133 -134 -164 l-43 -57 -166 -6 c-193 -8 -346 -35 -571 -101 -81 -24 -194 -51 -251 -60 -57 -9 -107 -19 -110 -23 -4 -4 -39 -56 -79 -117 -105 -158 -150 -212 -231 -280 -68 -57 -75 -66 -135 -193 -50 -105 -67 -152 -79 -225 -21 -123 -36 -169 -80 -257 -36 -72 -37 -75 -26 -126 8 -35 10 -98 6 -186 l-7 -133 60 -166 c71 -198 108 -363 122 -554 7 -84 16 -144 23 -151 7 -6 47 -24 89 -39 l76 -27 224 21 c123 12 455 39 738 61 l515 41 576 -11 c506 -10 583 -10 634 4 32 8 62 19 68 25 7 7 1 32 -20 79 -21 47 -28 74 -22 89 14 37 52 18 104 -53 25 -35 51 -64 56 -64 5 0 37 14 70 31 60 30 63 30 159 24 66 -5 99 -4 104 3 4 6 -14 52 -39 101 -24 49 -60 130 -79 180 l-33 90 27 149 c14 82 30 153 33 159 4 6 18 8 32 5 30 -5 31 -14 9 -137 -20 -116 -12 -232 23 -318 34 -84 37 -87 97 -87 68 1 87 13 135 88 37 56 44 62 75 62 40 0 49 10 65 72 11 39 10 62 -4 147 -9 55 -14 105 -10 110 3 6 54 -28 115 -77 l110 -87 15 -70 c9 -38 28 -92 43 -120 22 -41 33 -51 60 -55 17 -3 57 -25 87 -49 54 -43 56 -47 90 -155 34 -110 35 -111 111 -186 62 -62 85 -94 129 -181 44 -86 56 -122 65 -189 14 -99 42 -155 101 -196 l41 -28 37 21 c33 19 40 31 80 144 l43 124 -27 130 c-15 72 -44 188 -65 258 l-38 128 20 129 20 128 -101 323 -100 324 15 180 15 180 -90 243 c-88 239 -92 246 -171 351 l-80 108 0 64 c0 61 7 81 135 369 74 168 142 331 151 362 16 57 16 57 -9 101 -20 33 -34 46 -58 51 -56 11 -70 7 -134 -40 -62 -46 -64 -48 -135 -203 -39 -86 -97 -194 -128 -241 l-57 -85 -70 3 c-38 2 -149 -2 -245 -8 l-175 -10 -60 41 c-33 23 -108 78 -167 121 l-108 80 -111 -10 -112 -11 -91 45 c-50 25 -137 73 -193 107 l-102 61 -26 116 c-43 189 -45 195 -80 196 -16 1 -41 0 -55 -3z"/>
 </g>

</svg>